<?xml version="1.0" encoding="utf-8"?>
<!-- Generator: Adobe Illustrator 19.2.1, SVG Export Plug-In . SVG Version: 6.00 Build 0)   -->
<svg version="1.1" id="Layer_1" xmlns="http://www.w3.org/2000/svg" xmlns:xlink="http://www.w3.org/1999/xlink" x="0px" y="0px"
	 viewBox="0 0 16 16" style="enable-background:new 0 0 16 16;" xml:space="preserve">
<style type="text/css">
	.st0{fill:#333333;}
	.st1{opacity:0.7;}
	.st2{fill:#FFFFFF;}
	.st3{fill:#0099FF;}
	.st4{fill:#005F93;}
	.st5{fill:#666666;}
</style>
<path class="st5" d="M8,1c3.9,0,7,3.1,7,7s-3.1,7-7,7s-7-3.1-7-7S4.1,1,8,1 M8,0C3.6,0,0,3.6,0,8s3.6,8,8,8s8-3.6,8-8S12.4,0,8,0
	L8,0z"/>
<g>
	<g class="st1">
		<path class="st2" d="M9,8l2,2.7V5H5.3l2.3,1.7L5.8,9.7c-0.5,0.8-0.7,1.6-0.4,2.2C5.9,12.8,6,13,6,13l0.7-0.4c0,0-0.7-1.3,0.3-2.2
			L9,8z"/>
	</g>
	<g>
		<path class="st5" d="M9,7l2,2.7V4H5.3l2.3,1.7L5.8,8.7c-0.5,0.8-0.7,1.6-0.4,2.2C5.9,11.8,6,12,6,12l0.7-0.4c0,0-0.7-1.3,0.3-2.2
			L9,7z"/>
	</g>
</g>
</svg>
