<?xml version="1.0" encoding="utf-8"?>
<!-- Generator: Adobe Illustrator 19.2.1, SVG Export Plug-In . SVG Version: 6.00 Build 0)  -->
<svg version="1.1" id="Layer_1" xmlns="http://www.w3.org/2000/svg" xmlns:xlink="http://www.w3.org/1999/xlink" x="0px" y="0px"
	 viewBox="0 0 16 16" style="enable-background:new 0 0 16 16;" xml:space="preserve">
<style type="text/css">
	.st0{fill:url(#SVGID_1_);}
	.st1{fill:url(#SVGID_2_);}
	.st2{fill:#787878;}
	.st3{fill:#37B89D;}
	.st4{fill:none;}
	.st5{clip-path:url(#SVGID_4_);}
	.st6{fill:#7CBF7B;}
	.st7{fill:#AEBD67;}
	.st8{fill:#FEC337;}
	.st9{fill:#F4EB18;}
	.st10{fill:#09ABBD;}
	.st11{fill:#1380D5;}
	.st12{fill:#2B4AC6;}
</style>
<g>
	<g>
		<radialGradient id="SVGID_1_" cx="4.3331" cy="3.8542" r="17.25" gradientUnits="userSpaceOnUse">
			<stop  offset="0.3754" style="stop-color:#FFFFFF"/>
			<stop  offset="0.7864" style="stop-color:#CCCCCC"/>
		</radialGradient>
		<rect x="1.5" y="0.5" class="st0" width="13" height="15"/>
		<linearGradient id="SVGID_2_" gradientUnits="userSpaceOnUse" x1="8" y1="-3.137757e-10" x2="8" y2="16">
			<stop  offset="0.2761" style="stop-color:#999999"/>
			<stop  offset="0.8466" style="stop-color:#4D4D4D"/>
		</linearGradient>
		<path class="st1" d="M14,1v14H2V1L14,1 M15,0H1v16h14V0L15,0z"/>
	</g>
	<rect x="4" y="3" class="st2" width="8" height="1"/>
	<rect x="4" y="5" class="st2" width="8" height="1"/>
	<rect x="5" y="8" class="st3" width="6" height="5"/>
	<rect x="5" y="8" class="st4" width="6" height="5"/>
	<g>
		<defs>
			<rect id="SVGID_3_" x="5" y="8" width="6" height="5"/>
		</defs>
		<clipPath id="SVGID_4_">
			<use xlink:href="#SVGID_3_"  style="overflow:visible;"/>
		</clipPath>
		<g class="st5">
			<g>
				<ellipse transform="matrix(0.7071 -0.7071 0.7071 0.7071 -6.6337 8.5039)" class="st6" cx="6.9" cy="12.3" rx="2.4" ry="2.8"/>
				<ellipse transform="matrix(0.7071 -0.7071 0.7071 0.7071 -6.6337 8.5039)" class="st7" cx="6.9" cy="12.3" rx="1.8" ry="2.1"/>
				<ellipse transform="matrix(0.7071 -0.7071 0.7071 0.7071 -6.6337 8.5039)" class="st8" cx="6.9" cy="12.3" rx="1.2" ry="1.5"/>
				<ellipse transform="matrix(0.7071 -0.7071 0.7071 0.7071 -6.6337 8.5039)" class="st9" cx="6.9" cy="12.3" rx="0.6" ry="0.9"/>
			</g>
			<g>
				<path class="st10" d="M10.6,8c0.3,0.3,0.4,2.5,0.2,2.6c-0.7,0.7-1.8,0.6-2.6-0.2S7.3,8.4,8,7.8C8.6,7.1,9.8,7.2,10.6,8z"/>
				<ellipse transform="matrix(0.7071 -0.7071 0.7071 0.7071 -3.7556 9.3202)" class="st11" cx="9.4" cy="9.2" rx="1.1" ry="1.4"/>
				<ellipse transform="matrix(0.7071 -0.7071 0.7071 0.7071 -3.7556 9.3202)" class="st12" cx="9.4" cy="9.2" rx="0.6" ry="0.9"/>
			</g>
		</g>
	</g>
</g>
</svg>
