<?xml version="1.0" encoding="utf-8"?>
<!-- Generator: Adobe Illustrator 19.2.1, SVG Export Plug-In . SVG Version: 6.00 Build 0)  -->
<svg version="1.1" id="Layer_1" xmlns="http://www.w3.org/2000/svg" xmlns:xlink="http://www.w3.org/1999/xlink" x="0px" y="0px"
	 viewBox="0 0 16 16" style="enable-background:new 0 0 16 16;" xml:space="preserve">
<style type="text/css">
	.st0{fill:#37B89D;}
	.st1{fill:url(#SVGID_1_);}
	.st2{fill:url(#SVGID_2_);}
	.st3{fill:#787878;}
	.st4{clip-path:url(#SVGID_4_);}
	.st5{fill:#7CBF7B;}
	.st6{fill:#AEBD67;}
	.st7{fill:#FEC337;}
	.st8{fill:#F4EB18;}
	.st9{fill:#09ABBD;}
	.st10{fill:#1380D5;}
	.st11{fill:#2B4AC6;}
</style>
<g>
	<rect x="8" y="5" class="st0" width="5" height="5"/>
	<g>
		<radialGradient id="SVGID_1_" cx="4.3331" cy="3.8542" r="17.25" gradientUnits="userSpaceOnUse">
			<stop  offset="0.3754" style="stop-color:#FFFFFF"/>
			<stop  offset="0.7864" style="stop-color:#CCCCCC"/>
		</radialGradient>
		<rect x="1.5" y="0.5" class="st1" width="13" height="15"/>
		<linearGradient id="SVGID_2_" gradientUnits="userSpaceOnUse" x1="8" y1="-3.137757e-10" x2="8" y2="16">
			<stop  offset="0.2761" style="stop-color:#999999"/>
			<stop  offset="0.8466" style="stop-color:#4D4D4D"/>
		</linearGradient>
		<path class="st2" d="M14,1v14H2V1L14,1 M15,0H1v16h14V0L15,0z"/>
	</g>
	<rect x="3" y="5" class="st3" width="4" height="1"/>
	<rect x="3" y="7" class="st3" width="4" height="1"/>
	<rect x="3" y="9" class="st3" width="4" height="1"/>
	<rect x="8" y="5" class="st0" width="5" height="5"/>
	<g>
		<defs>
			<rect id="SVGID_3_" x="8" y="5" width="5" height="5"/>
		</defs>
		<clipPath id="SVGID_4_">
			<use xlink:href="#SVGID_3_"  style="overflow:visible;"/>
		</clipPath>
		<g class="st4">
			<g>
				<ellipse transform="matrix(0.7071 -0.7071 0.7071 0.7071 -3.6366 9.3476)" class="st5" cx="9.5" cy="9.1" rx="2" ry="2.3"/>
				<ellipse transform="matrix(0.7071 -0.7071 0.7071 0.7071 -3.6366 9.3476)" class="st6" cx="9.5" cy="9.1" rx="1.5" ry="1.8"/>
				<ellipse transform="matrix(0.7071 -0.7071 0.7071 0.7071 -3.6366 9.3476)" class="st7" cx="9.5" cy="9.1" rx="1" ry="1.3"/>
				<ellipse transform="matrix(0.7071 -0.7071 0.7071 0.7071 -3.6366 9.3476)" class="st8" cx="9.5" cy="9.1" rx="0.5" ry="0.8"/>
			</g>
			<g>
				<ellipse transform="matrix(0.7071 -0.7071 0.7071 0.7071 -1.2645 10.0204)" class="st9" cx="11.5" cy="6.5" rx="1.4" ry="1.6"/>
				
					<ellipse transform="matrix(0.7071 -0.7071 0.7071 0.7071 -1.2645 10.0204)" class="st10" cx="11.5" cy="6.5" rx="0.9" ry="1.2"/>
				
					<ellipse transform="matrix(0.7071 -0.7071 0.7071 0.7071 -1.2645 10.0204)" class="st11" cx="11.5" cy="6.5" rx="0.5" ry="0.7"/>
			</g>
		</g>
	</g>
</g>
</svg>
