<?xml version="1.0" encoding="utf-8"?>
<!-- Generator: Adobe Illustrator 19.2.1, SVG Export Plug-In . SVG Version: 6.00 Build 0)  -->
<svg version="1.1" id="Layer_1" xmlns="http://www.w3.org/2000/svg" xmlns:xlink="http://www.w3.org/1999/xlink" x="0px" y="0px"
	 viewBox="0 0 16 16" style="enable-background:new 0 0 16 16;" xml:space="preserve">
<style type="text/css">
	.st0{fill:#FFFFFF;}
	.st1{fill:#333333;}
	.st2{fill:#666666;}
	.st3{fill:#0099FF;}
</style>
<path class="st0" d="M8.5,0C7.7,0,6.8,0.4,6.7,1.7C6.2,1,5.5,1,5.2,1C5.1,1,5,1,4.9,1C4.1,1.1,3.2,1.7,3.4,3.4
	C3.5,3.9,3.8,5.3,4,6.5c0,0.1,0.1,0.3,0.1,0.4c-0.6-0.5-1.3-1-2.2-1l0,0c-0.2,0-0.4,0-0.5,0.1C0.7,6.1,0.3,6.5,0.1,7
	c-0.3,0.8,0.3,1.5,1.1,2.4c0.2,0.2,0.4,0.5,0.7,0.7c0.2,0.3,1.8,2.9,3.2,5.3L5.3,16h7.8l0.3-0.4c0.2-0.2,0.6-0.9,1.1-3.1l0,0l0,0
	c0,0,0.3-2,0.6-3.3c0.1-0.7,0.3-1.6,0.4-2.3c0.1-0.7,0.2-1.4,0.3-1.7c0.1-0.4,0.2-1-0.1-1.5c-0.2-0.3-0.5-0.5-1-0.7
	c-0.1,0-0.3,0-0.4,0c-0.4,0-0.9,0.2-1.2,0.5c0-0.1,0-0.2,0-0.2c0.2-1.3-0.6-2-1.4-2.1c-0.1,0-0.2,0-0.3,0c-0.2,0-0.7,0-1.1,0.4
	C10.1,0.3,9.2,0,8.6,0C8.6,0,8.5,0,8.5,0L8.5,0z"/>
<path class="st3" d="M8.5,1C8.5,1,8.5,1,8.5,1C9,1,9.3,1.2,9.3,2c0,0.8,0,4.3,0,4.6c0,0.1,0.3,0.3,0.5,0.3c0.2,0,0.3-0.1,0.4-0.2
	c0.1-0.4,0.4-3.3,0.5-3.8c0.1-0.4,0.3-0.8,0.8-0.8c0,0,0.1,0,0.1,0c0.5,0.1,0.6,0.5,0.6,1c0,0.1-0.4,3.4-0.4,3.8
	c0,0.3,0.3,0.4,0.6,0.4c0.2,0,0.3,0,0.4-0.1c0.3-0.3,0.4-1.4,0.7-2.2c0.2-0.6,0.6-1,1.1-1c0,0,0.1,0,0.1,0c0.3,0.1,0.5,0.3,0.3,0.9
	c-0.2,0.6-0.4,2.5-0.7,4.1c-0.3,1.3-0.6,3.3-0.6,3.3c-0.6,2.2-1,2.7-1,2.7H5.9c0,0-3-5.2-3.3-5.5C1.4,8,0.4,7.2,1.6,7
	c0.1,0,0.2,0,0.3,0c1.2,0,2.3,1.6,2.6,2C4.8,9.3,4.9,9.5,5,9.5c0.1,0,0.1,0,0.2-0.1c0.6-0.4,0.3-1,0.2-1.7C5.3,7.1,4.6,4.1,4.5,3.2
	C4.3,2.4,4.5,2.1,5,2c0.1,0,0.1,0,0.2,0c0.5,0,0.7,0.4,0.8,0.9c0.1,0.6,0.8,3.6,0.8,4c0,0.2,0.2,0.3,0.4,0.3c0.2,0,0.4-0.1,0.4-0.3
	c0.1-0.4-0.1-4,0-4.9C7.7,1.2,8.1,1,8.5,1"/>
</svg>
