<?xml version="1.0" encoding="utf-8"?>
<!-- Generator: Adobe Illustrator 19.2.1, SVG Export Plug-In . SVG Version: 6.00 Build 0)  -->
<svg version="1.1" id="Layer_1" xmlns="http://www.w3.org/2000/svg" xmlns:xlink="http://www.w3.org/1999/xlink" x="0px" y="0px"
	 viewBox="0 0 16 16" style="enable-background:new 0 0 16 16;" xml:space="preserve">
<style type="text/css">
	.st0{fill:#FFFFFF;}
	.st1{fill:none;stroke:#666666;stroke-miterlimit:10;}
	.st2{fill:#666666;}
	.st3{fill:none;stroke:#000000;stroke-miterlimit:10;}
	.st4{fill:none;stroke:#333333;stroke-miterlimit:10;}
	.st5{fill:#333333;}
	.st6{fill:none;stroke:#0099FF;stroke-miterlimit:10;}
	.st7{fill:#0099FF;}
	.st8{fill:#FFFFFF;stroke:#FFFFFF;stroke-width:1.5;stroke-miterlimit:10;}
</style>
<polygon class="st0" points="8,4.4 5.1,6 4.9,9.8 7.9,11.4 11,9.6 11.1,6.1 "/>
<g>
	<g>
		<path class="st6" d="M8,1C6,1,4.3,1.8,3,3.1C1.7,4.3,1,6.1,1,8c0,3.9,3.1,7,7,7s7-3.1,7-7c0-1.7-0.6-4.1-2.4-5.7"/>
		<g>
			<polygon class="st7" points="14,0.9 10,1 12,4.4 			"/>
		</g>
	</g>
</g>
<g>
	<path class="st7" d="M8,3.6L4.2,5.7L8,7.9l3.8-2.2L8,3.6z M5.8,6L8,4.8L10.2,6L8,7.3L5.8,6z"/>
	<path class="st7" d="M4.2,5.7v4.4L8,12.4V7.9L4.2,5.7z M5.2,6.9l2.3,1.4v2.6L5.2,9.5V6.9z"/>
	<path class="st7" d="M8,7.9v4.5l3.8-2.4l0-4.3L8,7.9z M10.8,9.5l-2.3,1.4V8.3l2.3-1.4V9.5z"/>
</g>
</svg>
