<?xml version="1.0" encoding="utf-8"?>
<!-- Generator: Adobe Illustrator 19.2.1, SVG Export Plug-In . SVG Version: 6.00 Build 0)  -->
<svg version="1.1" id="Layer_1" xmlns="http://www.w3.org/2000/svg" xmlns:xlink="http://www.w3.org/1999/xlink" x="0px" y="0px"
	 viewBox="0 0 16 16" style="enable-background:new 0 0 16 16;" xml:space="preserve">
<style type="text/css">
	.st0{fill:#666666;}
	.st1{fill:#333333;}
	.st2{fill:#0099FF;}
	.st3{fill:#FFFFFF;}
</style>
<path class="st2" d="M12,11l3.9,4.1c0.2,0.2,0.2,0.5,0,0.7C15.8,16,15.6,16,15.5,16s-0.3,0-0.4-0.1l-3.9-4.1L12,11z"/>
<path class="st2" d="M7.5,0C3.9,0,1,2.9,1,6.5C1,10.1,3.9,13,7.5,13S14,10.1,14,6.5C14,2.9,11.1,0,7.5,0L7.5,0z"/>
<rect x="4" y="6" class="st3" width="7" height="1"/>
<rect x="7" y="3" class="st3" width="1" height="7"/>
</svg>
